<svg xmlns="http://www.w3.org/2000/svg" version="1.1" xmlns:xlink="http://www.w3.org/1999/xlink" xmlns:svgjs="http://svgjs.com/svgjs" width="512" height="512" x="0" y="0" viewBox="0 0 682.667 682.667" style="enable-background:new 0 0 512 512" xml:space="preserve"><g><defs><clipPath id="b" clipPathUnits="userSpaceOnUse"><path d="M0 512h512V0H0Z" fill="#ffdbb8" data-original="#000000"></path></clipPath></defs><mask id="a"><rect width="100%" height="100%" fill="#ffffff" data-original="#ffffff"></rect></mask><g mask="url(#a)"><g clipPath="url(#b)" transform="matrix(1.33333 0 0 -1.33333 0 682.667)"><path d="M416 20H97v120h319z" style="strokeWidth:40;strokeLinecap:butt;strokeLinejoin:miter;stroke-miterlimit:10;stroke-dasharray:none;stroke-opacity:1" fill="none" stroke="#ffdbb8" strokeWidth="40" strokeLinecap="butt" strokeLinejoin="miter" stroke-miterlimit="10" stroke-dasharray="none" stroke-opacity="" data-original="#000000"></path><path d="M0 0c-8.08 33.87-12.611 66.999-12.611 93.5 0 47.772 56.412 86.5 126 86.5s126-38.728 126-86.5c0-26.157-4.611-59.384-12.821-93.5" style="strokeWidth:40;strokeLinecap:butt;strokeLinejoin:miter;stroke-miterlimit:10;stroke-dasharray:none;stroke-opacity:1" transform="translate(142.611 312)" fill="none" stroke="#ffdbb8" strokeWidth="40" strokeLinecap="butt" strokeLinejoin="miter" stroke-miterlimit="10" stroke-dasharray="none" stroke-opacity="" data-original="#000000"></path><path d="M0 0s-21.711 43.937-41.19 94.644" style="strokeWidth:40;strokeLinecap:butt;strokeLinejoin:miter;stroke-miterlimit:10;stroke-dasharray:none;stroke-opacity:1" transform="translate(208 142.356)" fill="none" stroke="#ffdbb8" strokeWidth="40" strokeLinecap="butt" strokeLinejoin="miter" stroke-miterlimit="10" stroke-dasharray="none" stroke-opacity="" data-original="#000000"></path><path d="M0 0c69.588 0 119-38.728 119-86.5C119-191 44-286 44-286" style="strokeWidth:40;strokeLinecap:butt;strokeLinejoin:miter;stroke-miterlimit:10;stroke-dasharray:none;stroke-opacity:1" transform="translate(373 428)" fill="none" stroke="#ffdbb8" strokeWidth="40" strokeLinecap="butt" strokeLinejoin="miter" stroke-miterlimit="10" stroke-dasharray="none" stroke-opacity="" data-original="#000000"></path><path d="M0 0c-69.588 0-119-38.728-119-86.5C-119-191-43-286-43-286" style="strokeWidth:40;strokeLinecap:butt;strokeLinejoin:miter;stroke-miterlimit:10;stroke-dasharray:none;stroke-opacity:1" transform="translate(139 428)" fill="none" stroke="#ffdbb8" strokeWidth="40" strokeLinecap="butt" strokeLinejoin="miter" stroke-miterlimit="10" stroke-dasharray="none" stroke-opacity="" data-original="#000000"></path></g></g></g></svg>