<svg xmlns="http://www.w3.org/2000/svg" version="1.1" xmlns:xlink="http://www.w3.org/1999/xlink" xmlns:svgjs="http://svgjs.com/svgjs" width="512" height="512" x="0" y="0" viewBox="0 0 682.667 682.667" style="enable-background:new 0 0 512 512" xml:space="preserve" className=""><g><defs><clipPath id="a" clipPathUnits="userSpaceOnUse"><path d="M0 512h512V0H0Z" fill="#d27722" data-original="#000000" className=""></path></clipPath></defs><g clip-path="url(#a)" transform="matrix(1.33333 0 0 -1.33333 0 682.667)"><path d="M0 0c-34.83 30.773-86.74 30.034-120.75-1.643-13.566-12.635-22.32-28.387-26.274-45.047l-17.213-68.28a75.011 75.011 0 0 0-19.693-34.699l-261.197-261.197 42.426-42.427 261.324 261.325a75.025 75.025 0 0 0 34.704 19.694l68.073 17.16c15.673 3.72 30.543 11.689 42.77 23.916C40.656-94.712 39.266-34.693 0 0Z" style="strokeWidth:30;strokeLinecap:butt;strokeLinejoin:miter;stroke-miterlimit:10;stroke-dasharray:none;stroke-opacity:1" transform="translate(466.47 474.376)" fill="none" stroke="#d27722" strokeWidth="30" strokeLinecap="butt" strokeLinejoin="miter" stroke-miterlimit="10" stroke-dasharray="none" stroke-opacity="" data-original="#000000" className=""></path><path d="m0 0 109.809-109.809 95.46 95.459L95.459 95.46" style="strokeWidth:30;strokeLinecap:butt;strokeLinejoin:miter;stroke-miterlimit:10;stroke-dasharray:none;stroke-opacity:1" transform="translate(229.509 187.033)" fill="none" stroke="#d27722" strokeWidth="30" strokeLinecap="butt" strokeLinejoin="miter" stroke-miterlimit="10" stroke-dasharray="none" stroke-opacity="" data-original="#000000" className=""></path><path d="m0 0 75.709-65.268a37.433 37.433 0 0 0 2.072-1.908c14.645-14.644 14.645-38.387 0-53.032-14.644-14.646-38.388-14.646-53.033 0-.67.67-1.299 1.365-1.907 2.071l-65.268 75.709" style="strokeWidth:30;strokeLinecap:butt;strokeLinejoin:miter;stroke-miterlimit:10;stroke-dasharray:none;stroke-opacity:1" transform="translate(408.26 146.168)" fill="none" stroke="#d27722" strokeWidth="30" strokeLinecap="butt" strokeLinejoin="miter" stroke-miterlimit="10" stroke-dasharray="none" stroke-opacity="" data-original="#000000" className=""></path><path d="m0 0-109.809 109.809-95.46-95.459 109.81-109.81" style="strokeWidth:30;strokeLinecap:butt;strokeLinejoin:miter;stroke-miterlimit:10;stroke-dasharray:none;stroke-opacity:1" transform="translate(282.491 324.967)" fill="none" stroke="#d27722" strokeWidth="30" strokeLinecap="butt" strokeLinejoin="miter" stroke-miterlimit="10" stroke-dasharray="none" stroke-opacity="" data-original="#000000" className=""></path><path d="m0 0-75.709 65.268a37.795 37.795 0 0 0-2.072 1.908c-14.644 14.644-14.644 38.387 0 53.032 14.645 14.646 38.388 14.646 53.033 0 .67-.67 1.299-1.365 1.908-2.071l65.267-75.709" style="strokeWidth:30;strokeLinecap:butt;strokeLinejoin:miter;stroke-miterlimit:10;stroke-dasharray:none;stroke-opacity:1" transform="translate(103.739 365.832)" fill="none" stroke="#d27722" strokeWidth="30" strokeLinecap="butt" strokeLinejoin="miter" stroke-miterlimit="10" stroke-dasharray="none" stroke-opacity="" data-original="#000000" className=""></path></g></g></svg>